<?xml version="1.0" encoding="iso-8859-1"?>
<!-- Uploaded to: SVG Repo, www.svgrepo.com, Generator: SVG Repo Mixer Tools -->
<!DOCTYPE svg PUBLIC "-//W3C//DTD SVG 1.1//EN" "http://www.w3.org/Graphics/SVG/1.1/DTD/svg11.dtd">
<svg fill="#000000" version="1.1" id="Capa_1" xmlns="http://www.w3.org/2000/svg" xmlns:xlink="http://www.w3.org/1999/xlink" 
	 width="800px" height="800px" viewBox="0 0 500.959 500.959"
	 xml:space="preserve">
<g>
	<path d="M62.657,166.735c-12.739-24.425-9.073-51.524,8.19-60.534c17.266-9.007,41.591,3.496,54.332,27.92
		c12.739,24.423,9.075,51.527-8.191,60.53C99.725,203.658,75.4,191.158,62.657,166.735z M70.129,198.604
		c-12.748-24.42-37.08-36.914-54.343-27.9c-17.268,9.01-20.934,36.116-8.188,60.539c12.748,24.425,37.08,36.914,54.348,27.902
		C79.209,250.131,82.875,223.027,70.129,198.604z M86.03,261.381c0,3.3,0.34,6.52,0.915,9.633
		c-19.093,0.971-27.428,23.489-27.428,42.816c0,19.946,16.174,36.118,36.119,36.118c18.055,0,48.122-13.465,52.28-14.51V320.48
		V201.283c-0.564-0.023-1.127-0.107-1.683-0.107C116.774,201.176,86.03,231.932,86.03,261.381z M229.045,136.91
		c-0.114-13.698-5.528-25.377-15.735-30.703c-17.269-9.007-41.596,3.493-54.341,27.916c-2.002,3.836-3.536,7.743-4.742,11.619
		c4.627-5.36,11.397-8.83,19.039-8.83h55.779V136.91z M309.23,224.446c-10.991,10.704-18.286,25.174-20.442,41.901
		c-13.795,11.915-33.29,17.996-55.071,17.996h-31.353v41.313c0,8.261-6.688,14.958-14.958,14.958h-11.343
		c-8.261,0-14.958-6.697-14.958-14.958V167.99c0-8.258,6.688-14.958,14.958-14.958h61.664c44.762,0,71.822,26.53,71.822,64.858
		C309.548,220.147,309.417,222.306,309.23,224.446z M267.754,218.691c0-18.494-12.884-28.411-33.507-28.411h-31.883v57.352h32.693
		c20.624,0,32.688-12.316,32.688-28.401v-0.539H267.754z M298.939,276.717c0-35.759,25.175-63.472,61.134-64.837
		c37.589-1.44,51.964,22.538,57.111,38.044c2.235,6.749-2.894,14.207-9.698,16.25L333.77,288.24
		c3.468,15.929,14.538,24.222,30.238,24.222c7.5,0,13.693-1.507,19.704-4.929c6.189-3.523,14.585-3.938,19.91,0.78l0.793,0.69
		c5.316,4.719,6.105,13.161,0.616,17.692c-10.669,8.808-24.403,13.922-41.499,13.922
		C326.392,340.614,298.939,314.553,298.939,276.717z M333.304,266.328l48.22-14.034c-4.784-11.936-19.793-13.971-28.315-11.273
		C339.352,245.417,334.689,253.078,333.304,266.328z M435.241,303.479c0,28.604,14.51,37.14,35.983,37.14
		c6.062,0,11.275-0.732,15.915-2.058c6.828-1.938,11.775-10.855,11.775-17.978v-2.399c0-7.117-3.548-10.795-8.368-9.576
		c-2.819,0.709-5.797,1.102-8.938,1.102c-7.851,0-11.309-3.93-11.309-12v-52.835h16.186c7.122,0,12.886-5.766,12.886-12.879v-4.233
		c0-7.113-5.764-12.876-12.886-12.876h-16.186v-18.722c0-7.124-5.769-12.888-12.877-12.888h-9.306
		c-7.127,0-12.877,5.764-12.877,12.888v18.722h-7.388c-4.074,0-7.379,5.764-7.379,12.876v4.233c0,7.113,3.305,12.879,7.379,12.879
		c4.065,0,7.388,0,7.388,0V303.479z M327.087,371.501h-21.949v-18.585h-6.917v44.048h6.917v-18.836h21.949v18.836h6.931v-44.048
		h-6.931V371.501z M386.709,374.828c0,12.862-9.881,22.854-22.5,22.854c-12.756,0-22.379-9.73-22.379-22.63
		c0-12.872,9.88-22.855,22.495-22.846C377.09,352.207,386.709,361.929,386.709,374.828z M379.596,375.053
		c0-9.335-6.613-16.284-15.387-16.298c-8.709,0-15.28,6.897-15.28,16.06c0,9.344,6.622,16.297,15.396,16.297
		C373.034,391.111,379.596,384.214,379.596,375.053z M388.659,359.479h14.039v37.485h7v-37.485h14.044v-6.562h-35.083V359.479
		L388.659,359.479z M437.323,378.007h22.831v-6.506h-22.831v-12.074h25.529v-6.511h-32.446v44.048h32.744v-6.511h-25.827V378.007z
		 M477.404,390.389v-37.473h-6.94v44.048h30.495v-6.575H477.404L477.404,390.389z"/>
</g>
</svg>